<?xml version="1.0" encoding="UTF-8" standalone="no"?>
<svg
   xmlns:dc="http://purl.org/dc/elements/1.1/"
   xmlns:cc="http://creativecommons.org/ns#"
   xmlns:rdf="http://www.w3.org/1999/02/22-rdf-syntax-ns#"
   xmlns:svg="http://www.w3.org/2000/svg"
   xmlns="http://www.w3.org/2000/svg"
   viewBox="0 0 558.66669 560"
   height="560"
   width="558.66669"
   xml:space="preserve"
   id="svg2"
   version="1.1"><metadata
     id="metadata8"><rdf:RDF><cc:Work
         rdf:about=""><dc:format>image/svg+xml</dc:format><dc:type
           rdf:resource="http://purl.org/dc/dcmitype/StillImage" /></cc:Work></rdf:RDF></metadata><defs
     id="defs6" /><g
     transform="matrix(1.3333333,0,0,-1.3333333,0,560)"
     id="g10"><g
       transform="scale(0.1)"
       id="g12"><path
         id="path14"
         style="fill:#ee2200;fill-opacity:1;fill-rule:evenodd;stroke:none"
         d="M 4189.51,2099.5 C 4189.51,942.867 3252.38,6.26172 2096.38,6.26172 940.59,6.26172 3.24609,942.867 3.24609,2099.5 c 0,1155.95 937.28891,2093.13 2092.97391,2093.13 1156.11,0 2093.23,-937.13 2093.23,-2093.13 h 0.06" /><path
         id="path16"
         style="fill:#ffffff;fill-opacity:1;fill-rule:evenodd;stroke:none"
         d="m 1183.09,3112.68 v -718.21 c 109.27,130.32 240.28,196.04 392.38,196.04 78.26,0 148.46,-14.93 211.38,-44.67 63.08,-29.43 110.38,-67.25 142.03,-113.18 32.12,-46.31 53.74,-97.15 65.45,-153.05 11.71,-55.54 17.46,-142.45 17.46,-259.86 v -767.88 l -339.91,0.05 v 691.58 c 0,137.33 -6.02,224.24 -18.99,261.21 -12.97,37.24 -35.6,66.4 -68.25,87.92 -32.64,22.2 -73.41,32.91 -122.51,32.91 -56.38,0 -106.9,-14.24 -150.73,-41.98 -44.77,-28.16 -77.05,-70.2 -97.41,-126.42 -20.78,-56.22 -31.11,-139.39 -30.69,-249.51 l -0.42,-655.71 H 843.441 v 1860.76 z m 1337.79,0 v -718.21 c 109.28,130.32 240.28,196.04 392.38,196.04 78.01,0 148.47,-14.93 211.81,-44.67 62.65,-29.43 109.8,-67.25 141.65,-113.18 31.96,-46.31 53.74,-97.15 65.45,-153.05 11.6,-55.54 17.46,-142.45 17.46,-259.86 v -767.88 l -339.54,0.05 v 691.58 c 0,137.33 -6.43,224.24 -19.41,261.21 -12.97,37.24 -35.59,66.4 -68.24,87.92 -32.39,22.2 -73.42,32.91 -122.67,32.91 -56.22,0 -106.75,-14.24 -150.57,-41.98 -44.25,-28.16 -76.74,-70.2 -97.41,-126.42 -20.36,-56.22 -30.7,-139.39 -30.7,-249.51 V 1251.92 H 2181.5 v 1860.76 h 339.38" /></g></g></svg>